General:
      
      Format : MPEG-PS
      File size : 870 MiB
      Duration : 46mn 47s
      Overall bit rate : 2 599 Kbps
      Language: English
      Subtitle: Romanian


Video:      
      
      Format : MPEG Video
      Format version : Version 2
      Format profile : Main@Main
      Format settings, Matrix : Default
      Duration : 46mn 47s
      Bit rate mode : Variable
      Bit rate : 2 272 Kbps
      Nominal bit rate : 2 400 Kbps
      Width : 480 pixels
      Height : 576 pixels
      Display aspect ratio : 4:3
      Frame rate : 25.000 fps
      Colorimetry : 4:2:0
      Scan type : Interlaced
      Scan order : Top Field First
      Bits/(Pixel*Frame) : 0.329
      Stream size : 760 MiB (87%)

Audio:

      ID : 192 (0xC0)
      Format : MPEG Audio
      Format version : Version 1
      Format profile : Layer 2
      Duration : 46mn 47s
      Bit rate mode : Constant
      Bit rate : 224 Kbps
      Channel(s) : 2 channels
      Sampling rate : 44.1 KHz
      Resolution : 16 bits
      Video delay : -80ms
      Stream size : 75.0 MiB (9%)